Patient4_TMGait_0pt7_02_right_44_EMG.mot
version=1
nRows=26
nColumns=33
inDegrees=no
endheader
time	1LAddLong	2LGlutMax	3LGlutMed	4LIliopsoas	5LSemiMemb	6LBicFemLong	7LRecFem	8LVastMed	9LVastLat	10LGasMed	11LTibAnt	12lTibPost	13LPeroneusLong	14LSol	15LExtDigLong	16LFlexDigLong	17RAddLong	18RGlutMax	19RGlutMed	20RIliopsoas	21RSemiMemb	22RBicFemLong	23RRecFem	24RVastMed	25RVastLat	26RGasMed	27RTibAnt	28RTibPost	29RPeroneusLong	30RSol	31RExtDigLong	32RFlexDigLong
51.033	-0.00946	-0.040131	-0.11871	-0.015259	-0.022888	0.16022	-0.031281	0.010071	-0.047455	0.044708	0.015259	0.001678	0.19043	0.037384	-0.23178	-0.006104	0.010834	-0.024719	-0.054016	0.08606	-0.066223	0.11551	0.054626	-0.1268	0.024719	-0.010529	-0.10056	0.002594	-0.10239	-0.046387	-0.005188	-0.015106
51.034	-0.006409	-0.039368	-0.072327	0.00061	-0.010071	0.19775	-0.14084	0.019226	0.00351	0.022125	0.005646	-0.006409	0.098877	0.024872	-0.16205	0.005035	0.023804	-0.011292	-0.10666	0.018158	-0.069733	0.089111	0.046234	-0.12787	0.017853	-0.012665	-0.10452	-0.002594	-0.077057	-0.026093	-0.008087	-0.009918
51.035	0.00885	-0.047455	0.07309	0.003052	0.003204	0.16052	-0.11765	-0.00473	0.15167	0.005035	0.045471	0.001526	-0.22446	0.033875	-0.094757	0.000153	0.022278	-0.006256	-0.112	-0.049286	-0.027924	0.057526	0.059814	-0.10056	0.035706	-0.002594	0.094604	-0.001984	-0.17105	-0.018158	-0.007782	0.004883
51.036	0.003357	-0.03006	0.10437	0.016174	-0.002747	0.2243	-0.045929	-0.016174	0.21988	0.006714	0.002747	0.004578	-0.19699	0.001373	0.068665	0.021973	0.001831	0.014191	-0.016632	-0.1062	0.033112	-0.003967	0.042877	-0.055237	0.034637	0.003662	0.095062	-0.001831	-0.27069	-0.088806	-0.002136	0.003815
51.037	0.001526	-0.05249	0.006256	0.036163	0.000305	0.24277	0.0383	-0.013275	0.19669	0.059052	-0.21027	0.001221	-0.42847	0.013733	0.37293	0.053253	0.018311	0.005493	0.014343	-0.059052	0.12268	0.020447	0.078888	-0.048523	0.03006	0.006256	0.043335	-0.006866	0.20905	-0.10895	-0.002136	0.009155
51.038	0.001678	-0.066376	0.007935	0.02594	0.003052	0.089417	0.089722	-0.013885	0.15442	0.066681	-0.23239	0.000763	-0.47577	0.021057	0.034943	-0.026398	0.021057	0.031738	-0.034485	-0.054932	0.043945	0.057678	0.15381	-0.004272	0.016327	0.005951	0.005035	-0.003052	0.55924	-0.05188	0	0.014801
51.039	-0.006256	-0.067444	0.06958	0.021057	0.00351	-0.19394	0.10559	-0.002899	0.042725	-0.007782	-0.11566	0.003357	0.11627	0.032654	0.32761	0.027924	0.040894	-0.003967	-0.55039	-0.10208	-0.048828	0.10208	0.19974	-0.054779	0.02243	-0.002747	-0.031433	-0.001678	0.11978	-0.034485	-0.001831	0.016785
51.04	0.063782	-0.087891	-0.039063	-0.001526	0.012665	-0.10727	0.010223	0.010376	0.019226	-0.077515	0.058136	0.010071	0.52246	0.058899	0.022583	0.036011	0.039215	-0.020142	-0.89844	-0.072937	-0.17059	0.093689	0.20874	-0.04425	0.005493	0.003357	0.013123	-0.005951	-0.29373	-0.016937	-0.001526	0.023041
51.041	0.006866	-0.10727	-0.12573	0.006409	0.003662	0.081177	-0.070801	-0.005493	0.13214	-0.10132	0.06546	0.006104	0.65933	0.11261	0.062103	0.044098	0.02533	0.016174	-0.3447	-0.19455	-0.16983	0.09079	0.1297	-0.041656	0.012665	-0.003967	0.030518	-0.003967	-0.13641	0.069885	-0.004578	0.020294
51.042	0.009003	-0.071106	-0.12665	-0.010834	0.003052	-0.002594	-0.02243	-0.002747	0.17532	-0.070801	0.16785	0.005341	0.084686	0.11765	-0.41229	0.035706	0.022736	0.040741	0.10086	-0.34531	0.026855	0.098419	0.12848	-0.060577	0.011749	0.000305	0.041046	-0.002899	0.014191	0.058136	-0.001984	0.018158
51.043	0.008545	-0.090942	-0.08728	-0.002441	-0.01709	-0.18829	0.072479	-0.005951	-0.003662	-0.001526	0.19989	0.004578	-0.2269	-0.024872	-0.16251	0.015411	0.018311	0.037384	0.21805	-0.24872	0.02533	0.01709	0.047302	-0.11063	-0.004883	-0.000458	0.050507	-0.003204	-0.000458	-0.003357	-0.002441	0.007172
51.044	0.007172	-0.089569	-0.043945	-0.018005	-0.029297	-0.023499	0.12711	-0.014801	-0.15503	0.011597	0.12985	-0.000305	0.20386	-0.088043	-0.069122	-0.001526	0.016174	-0.010376	0.31815	-0.062256	0.083771	-0.081024	-0.000916	-0.062866	0.000763	-0.009613	0.039825	-0.009003	-0.029907	-0.007019	-0.001984	0.013733
51.045	-0.005646	-0.092316	-0.073242	-0.017395	-0.029449	0.032349	0.10498	-0.007019	-0.27023	0.029297	-0.037537	0.003052	0.22446	-0.065155	-0.031738	-0.029755	0.032196	-0.010681	-0.33249	0.086975	-0.009003	-0.10315	-0.037231	-0.073395	-0.002289	-0.00412	0.13275	-0.005341	-0.028229	0.011749	-0.003052	0.006866
51.046	0.002899	-0.061646	-0.007782	0.001068	-0.017548	0.045929	0.064087	0.007324	-0.17777	0.051727	-0.103	0.00946	0.2385	-0.055695	-0.29923	0.018005	0.045013	-0.053711	-0.93124	0.24628	-0.20889	-0.10742	-0.10147	-0.11444	-0.001831	-0.003662	0.18875	-0.003357	-0.006561	-0.020142	0	0.007477
51.047	0.014954	-0.05661	-0.010834	0.012512	0.005188	0.060577	0.050659	0.013275	-0.11826	0.02533	0.021667	0.003815	0.15198	-0.006714	-0.24582	0.028229	0.051117	-0.068665	-0.87845	0.242	-0.36194	-0.17639	-0.066223	-0.14206	-0.01709	-0.000305	0.14511	-0.003815	0.063934	-0.095978	-0.002899	0.009003
51.048	0.00824	-0.052643	-0.00946	0.015564	-0.006561	0.10788	0.069275	0.010681	-0.049744	-0.013733	-0.032959	0.000916	0.1265	-0.063934	-0.37064	0.029144	0.025177	-0.040741	-0.69214	0.11215	-0.25589	-0.13916	-0.060272	-0.097046	0.018005	0.000153	-0.112	-0.002747	0.045471	-0.067596	-0.00351	0.007782
51.049	0.012054	-0.016785	-0.039825	0.023346	-0.006256	0.086823	0.17838	0.007172	-0.093079	-0.0177	-0.061035	0.003967	0.071259	-0.12848	-0.21271	0.015717	-0.018463	-0.055847	0.14725	0.035858	0.2919	-0.068817	-0.041809	-0.059357	0.016937	-0.000458	-0.24338	-0.005951	0.2034	-0.022278	-0.00061	0.006714
51.05	0.012207	-0.032043	-0.091553	0.002747	-0.000305	0.036316	0.19501	0.004578	-0.097656	-0.012207	-0.072784	0.00061	0.035553	-0.10788	-0.00885	0.004425	-0.031128	-0.028076	0.22385	-0.022888	0.51193	0.036621	0.020294	-0.072784	0.012207	0.001068	0.084534	-0.006256	0.30838	-0.050507	-0.002747	0.000153
51.051	-0.00351	-0.013428	-0.035706	-0.015411	0.012512	-0.029449	0.21988	0.004883	-0.050354	-0.00885	0.06134	0.003815	0.03067	-0.069885	-0.084534	-0.011749	-0.002441	-0.071716	-0.18021	0.040436	0.25559	0.062103	0.011444	-0.037231	0.003357	0.000305	0.34607	-0.00412	0.10986	-0.041504	-0.001526	0.002899
51.052	-0.010529	-0.074615	0.006104	0.012817	0.009003	-0.12909	0.26764	-0.002136	-0.093842	0.007782	0.15762	0.006866	-0.085449	-0.073242	0.24643	-0.005951	0.029449	-0.04303	-0.1593	0.025024	0.078735	0.00946	0.02594	-0.049896	0.009613	-0.000916	0.42816	-0.003204	-0.71045	-0.1329	0	0.007172
51.053	0.002899	-0.06485	-0.018921	0.001221	-0.002136	-0.045166	0.24231	-0.013123	-0.12726	0.014191	0.29007	0.001373	-0.15869	-0.021973	0.27725	-0.00824	0.072327	-0.11108	-0.24338	0.000458	0.039368	-0.045929	0.042267	-0.10742	-0.005493	0.00824	0.31158	-0.003662	-0.47089	-0.1059	-0.001678	0.014343
51.054	0.008087	-0.053253	0.055084	-0.002899	0.001984	-0.010223	0.037689	-0.004272	-0.16403	0.002441	0.21637	0.006409	-0.070648	-0.031128	0.29022	-0.006714	0.12848	-0.07782	-0.35278	-0.089264	0.17044	-0.069275	0.05188	-0.092163	-0.002289	0.003357	0.050659	-0.003204	0.084991	-0.019989	-0.003357	-0.000153
51.055	0.019684	-0.039673	0.047455	-0.001831	-0.009308	-0.022125	-0.23773	0.019073	-0.13733	0.005188	-0.037689	0.001068	-0.009308	-0.054169	0.15106	-0.004883	0.15411	-0.057831	-0.46845	-0.13473	0.23254	0.001068	0.033264	-0.1207	-0.010681	-0.001678	0.11231	-0.00412	0.15213	0.030823	0.006409	0.000763
51.056	0.019989	-0.042725	0.017242	0.002289	0.008392	-0.050049	-0.31326	0.015259	-0.012665	0.003357	0.081787	0.010681	0.040588	-0.023651	0.15213	-0.007324	0.038605	-0.06897	-0.63126	-0.12039	0.036011	0.083466	0.048981	-0.11887	-0.00351	-0.007782	0.14999	-0.006866	0.10849	0.066376	-0.001984	-0.00061
51.057	0.028839	-0.039978	-0.033264	-0.00946	0.014038	-0.040131	-0.20111	0.022278	0.054779	0.010376	-0.032043	0.006409	0.063171	-0.086212	0.018616	-0.00946	-0.064545	-0.041809	-0.52078	-0.063782	-0.12833	0.28595	0.016785	0.0383	0.011902	-0.005493	-0.009766	-0.003052	0.065002	0.02182	0	-0.007324
51.058	0.012817	-0.007782	-0.020142	0.005035	0.005798	-0.014801	0	0.01297	0.14267	0.030518	-0.036926	-0.007629	0.031281	-0.003204	-0.059052	-0.018921	0.024872	0.003815	-0.35553	-0.016785	-0.14862	0.21149	0.02121	0.10941	-0.00351	-0.009155	-0.13641	-0.00946	0.1265	0.002594	-0.001984	-0.002594
